<?xml version="1.0" encoding="utf-8"?>
<svg version="1.1" id="Layer_1" xmlns="http://www.w3.org/2000/svg" xmlns:xlink="http://www.w3.org/1999/xlink" x="0px" y="0px"
	 viewBox="0 0 64 64" xml:space="preserve">
<path stroke="null" d="m31.896227,63.533706l-0.887388,-0.873302l-30.875467,-30.762783l31.664256,-31.664256l1.014158,1.014158l30.988151,30.875467l-31.960052,31.551572zm-21.226883,-24.565152l21.409995,21.409995l5.521525,-5.521525l-14.310892,-14.423576c-2.929789,-2.929789 -3.943946,-6.986419 -3.267841,-10.704998l-9.352787,9.240103zm19.156312,4.84542l9.240103,9.240103l21.297311,-21.297311l-5.521525,-5.521525l-14.198207,14.198207c-2.929789,2.929789 -6.986419,4.056631 -10.817682,3.380526zm-4.84542,-4.958104c3.831262,3.831262 10.254261,3.831262 14.085523,0c1.915631,-1.915631 2.817105,-4.507367 2.817105,-6.986419c0,-2.591736 -0.901473,-5.183473 -2.817105,-6.986419c-1.802947,-1.802947 -4.394683,-2.929789 -6.986419,-2.929789c-2.70442,0 -5.183473,1.014158 -6.986419,2.929789c-1.915631,1.915631 -2.817105,4.507367 -2.817105,6.986419c-0.225368,2.479052 0.788789,5.070788 2.70442,6.986419zm-21.409995,-6.986419l5.521525,5.521525l14.198207,-14.085523c0,0 -4.507322,4.648166 0,-0.112684c2.253684,-2.253684 5.296157,-3.49321 8.676682,-3.49321c0.676105,0 1.35221,0.112684 2.028315,0.225368l-9.240103,-9.240103l-21.184627,21.184627zm37.073097,-8.676682c2.929789,2.929789 4.056631,6.873735 3.380526,10.704998l9.240103,-9.240103l-21.409995,-21.409995l-5.521525,5.521525l14.310892,14.423576l0,0l0,0z" fill="#000000" stroke-width="0"/>
</svg>
